<mxfile host="app.diagrams.net" modified="2024-03-27T00:12:28.125Z" agent="Mozilla/5.0 (Macintosh; Intel Mac OS X 10_15_7) AppleWebKit/605.1.15 (KHTML, like Gecko) Version/17.4 Safari/605.1.15" version="24.0.5" etag="SM9oCZXC0ldYspUcIJYz" type="github">
  <diagram name="Page-1" id="pWjyEs2fXqXvteqC_o-Z">
    <mxGraphModel>
      <root>
        <mxCell id="0" />
        <mxCell id="1" parent="0" />
      </root>
    </mxGraphModel>
  </diagram>
</mxfile>
